<mxfile host="Electron" modified="2024-02-28T17:50:46.084Z" agent="Mozilla/5.0 (Windows NT 10.0; Win64; x64) AppleWebKit/537.36 (KHTML, like Gecko) draw.io/23.1.5 Chrome/120.0.6099.109 Electron/28.1.0 Safari/537.36" etag="Y4lT8FfU0WyKiZl6tKfy" version="23.1.5" type="device">
  <diagram name="Page-1" id="5f0bae14-7c28-e335-631c-24af17079c00">
    <mxGraphModel dx="1860" dy="929" grid="1" gridSize="10" guides="1" tooltips="1" connect="1" arrows="1" fold="1" page="1" pageScale="1" pageWidth="1100" pageHeight="850" background="none" math="0" shadow="0">
      <root>
        <mxCell id="0" />
        <mxCell id="1" parent="0" />
        <mxCell id="dszYUpgC-yR1p4jUQjzj-1" value="&amp;lt;&amp;lt;processor&amp;gt;&amp;gt;&lt;br&gt;client" style="verticalAlign=top;align=left;spacingTop=8;spacingLeft=2;spacingRight=12;shape=cube;size=10;direction=south;fontStyle=4;html=1;whiteSpace=wrap;" vertex="1" parent="1">
          <mxGeometry x="60" y="70" width="350" height="300" as="geometry" />
        </mxCell>
        <mxCell id="dszYUpgC-yR1p4jUQjzj-3" value="Data Manager" style="shape=module;align=left;spacingLeft=20;align=center;verticalAlign=top;whiteSpace=wrap;html=1;" vertex="1" parent="1">
          <mxGeometry x="230" y="220" width="100" height="50" as="geometry" />
        </mxCell>
        <mxCell id="dszYUpgC-yR1p4jUQjzj-4" value="Navigator" style="shape=module;align=left;spacingLeft=20;align=center;verticalAlign=top;whiteSpace=wrap;html=1;" vertex="1" parent="1">
          <mxGeometry x="100" y="220" width="100" height="50" as="geometry" />
        </mxCell>
        <mxCell id="dszYUpgC-yR1p4jUQjzj-5" value="Calculator" style="shape=module;align=left;spacingLeft=20;align=center;verticalAlign=top;whiteSpace=wrap;html=1;" vertex="1" parent="1">
          <mxGeometry x="230" y="140" width="100" height="50" as="geometry" />
        </mxCell>
        <mxCell id="dszYUpgC-yR1p4jUQjzj-6" value="View" style="shape=module;align=left;spacingLeft=20;align=center;verticalAlign=top;whiteSpace=wrap;html=1;" vertex="1" parent="1">
          <mxGeometry x="100" y="140" width="100" height="50" as="geometry" />
        </mxCell>
        <mxCell id="dszYUpgC-yR1p4jUQjzj-7" value="Header" style="shape=module;align=left;spacingLeft=20;align=center;verticalAlign=top;whiteSpace=wrap;html=1;" vertex="1" parent="1">
          <mxGeometry x="100" y="300" width="100" height="50" as="geometry" />
        </mxCell>
        <mxCell id="dszYUpgC-yR1p4jUQjzj-9" value="&lt;font style=&quot;font-size: 14px;&quot;&gt;&amp;lt;&amp;lt;network&amp;gt;&amp;gt; public network&lt;/font&gt;" style="verticalAlign=top;align=left;spacingTop=8;spacingLeft=2;spacingRight=12;shape=cube;size=10;direction=south;fontStyle=4;html=1;whiteSpace=wrap;" vertex="1" parent="1">
          <mxGeometry x="30" y="450" width="410" height="50" as="geometry" />
        </mxCell>
        <mxCell id="dszYUpgC-yR1p4jUQjzj-11" value="" style="endArrow=none;html=1;rounded=0;entryX=1;entryY=0.486;entryDx=0;entryDy=0;entryPerimeter=0;exitX=0;exitY=0;exitDx=0;exitDy=200;exitPerimeter=0;" edge="1" parent="1" source="dszYUpgC-yR1p4jUQjzj-9" target="dszYUpgC-yR1p4jUQjzj-1">
          <mxGeometry width="50" height="50" relative="1" as="geometry">
            <mxPoint x="520" y="450" as="sourcePoint" />
            <mxPoint x="570" y="400" as="targetPoint" />
          </mxGeometry>
        </mxCell>
        <mxCell id="dszYUpgC-yR1p4jUQjzj-12" value="&amp;lt;&amp;lt;processor&amp;gt;&amp;gt;&lt;br&gt;webserver" style="verticalAlign=top;align=left;spacingTop=8;spacingLeft=2;spacingRight=12;shape=cube;size=10;direction=south;fontStyle=4;html=1;whiteSpace=wrap;" vertex="1" parent="1">
          <mxGeometry x="60" y="560" width="350" height="270" as="geometry" />
        </mxCell>
        <mxCell id="dszYUpgC-yR1p4jUQjzj-13" value="Data Manager" style="shape=module;align=left;spacingLeft=20;align=center;verticalAlign=top;whiteSpace=wrap;html=1;" vertex="1" parent="1">
          <mxGeometry x="100" y="610" width="100" height="50" as="geometry" />
        </mxCell>
        <mxCell id="dszYUpgC-yR1p4jUQjzj-15" value="" style="endArrow=none;html=1;rounded=0;entryX=1.01;entryY=0.489;entryDx=0;entryDy=0;entryPerimeter=0;exitX=0;exitY=0;exitDx=0;exitDy=170;exitPerimeter=0;" edge="1" parent="1" source="dszYUpgC-yR1p4jUQjzj-12" target="dszYUpgC-yR1p4jUQjzj-9">
          <mxGeometry width="50" height="50" relative="1" as="geometry">
            <mxPoint x="310" y="580" as="sourcePoint" />
            <mxPoint x="360" y="530" as="targetPoint" />
          </mxGeometry>
        </mxCell>
        <mxCell id="dszYUpgC-yR1p4jUQjzj-16" value="Scraper" style="shape=module;align=left;spacingLeft=20;align=center;verticalAlign=top;whiteSpace=wrap;html=1;" vertex="1" parent="1">
          <mxGeometry x="230" y="610" width="100" height="50" as="geometry" />
        </mxCell>
        <mxCell id="dszYUpgC-yR1p4jUQjzj-17" value="Bashscript" style="shape=module;align=left;spacingLeft=20;align=center;verticalAlign=top;whiteSpace=wrap;html=1;" vertex="1" parent="1">
          <mxGeometry x="100" y="690" width="100" height="50" as="geometry" />
        </mxCell>
        <mxCell id="dszYUpgC-yR1p4jUQjzj-21" value="&lt;font style=&quot;font-size: 14px;&quot;&gt;&amp;lt;&amp;lt;network&amp;gt;&amp;gt; public network&lt;/font&gt;" style="verticalAlign=top;align=left;spacingTop=8;spacingLeft=2;spacingRight=12;shape=cube;size=10;direction=south;fontStyle=4;html=1;whiteSpace=wrap;" vertex="1" parent="1">
          <mxGeometry x="450" y="650" width="230" height="50" as="geometry" />
        </mxCell>
        <mxCell id="dszYUpgC-yR1p4jUQjzj-22" value="" style="endArrow=none;html=1;rounded=0;entryX=0;entryY=0;entryDx=30;entryDy=230;entryPerimeter=0;exitX=0.445;exitY=0.001;exitDx=0;exitDy=0;exitPerimeter=0;" edge="1" parent="1" source="dszYUpgC-yR1p4jUQjzj-12" target="dszYUpgC-yR1p4jUQjzj-21">
          <mxGeometry width="50" height="50" relative="1" as="geometry">
            <mxPoint x="420" y="680" as="sourcePoint" />
            <mxPoint x="450" y="720" as="targetPoint" />
          </mxGeometry>
        </mxCell>
        <mxCell id="dszYUpgC-yR1p4jUQjzj-23" value="&amp;lt;&amp;lt;processor&amp;gt;&amp;gt;&lt;br&gt;website" style="verticalAlign=top;align=left;spacingTop=8;spacingLeft=2;spacingRight=12;shape=cube;size=10;direction=south;fontStyle=4;html=1;whiteSpace=wrap;" vertex="1" parent="1">
          <mxGeometry x="750" y="610" width="180" height="120" as="geometry" />
        </mxCell>
        <mxCell id="dszYUpgC-yR1p4jUQjzj-24" value="" style="endArrow=none;html=1;rounded=0;entryX=0.592;entryY=0.001;entryDx=0;entryDy=0;entryPerimeter=0;exitX=0.583;exitY=0.999;exitDx=0;exitDy=0;exitPerimeter=0;" edge="1" parent="1" source="dszYUpgC-yR1p4jUQjzj-23" target="dszYUpgC-yR1p4jUQjzj-21">
          <mxGeometry width="50" height="50" relative="1" as="geometry">
            <mxPoint x="770" y="740" as="sourcePoint" />
            <mxPoint x="820" y="690" as="targetPoint" />
          </mxGeometry>
        </mxCell>
        <mxCell id="dszYUpgC-yR1p4jUQjzj-25" value="Information" style="shape=module;align=left;spacingLeft=20;align=center;verticalAlign=top;whiteSpace=wrap;html=1;" vertex="1" parent="1">
          <mxGeometry x="780" y="660" width="100" height="50" as="geometry" />
        </mxCell>
        <mxCell id="dszYUpgC-yR1p4jUQjzj-26" value="Provisioning" style="shape=module;align=left;spacingLeft=20;align=center;verticalAlign=top;whiteSpace=wrap;html=1;" vertex="1" parent="1">
          <mxGeometry x="230" y="690" width="100" height="50" as="geometry" />
        </mxCell>
        <mxCell id="dszYUpgC-yR1p4jUQjzj-30" value="" style="group" vertex="1" connectable="0" parent="1">
          <mxGeometry x="225" y="770" width="110" height="50" as="geometry" />
        </mxCell>
        <mxCell id="dszYUpgC-yR1p4jUQjzj-27" value="&amp;lt;&amp;lt;artifact&amp;gt;&amp;gt;&lt;br&gt;output.csv" style="html=1;dropTarget=0;whiteSpace=wrap;" vertex="1" parent="dszYUpgC-yR1p4jUQjzj-30">
          <mxGeometry width="110" height="50" as="geometry" />
        </mxCell>
        <mxCell id="dszYUpgC-yR1p4jUQjzj-29" value="" style="shape=note;whiteSpace=wrap;html=1;backgroundOutline=1;darkOpacity=0.05;size=8;" vertex="1" parent="dszYUpgC-yR1p4jUQjzj-30">
          <mxGeometry x="89.375" y="10" width="13.75" height="20" as="geometry" />
        </mxCell>
        <mxCell id="dszYUpgC-yR1p4jUQjzj-32" value="" style="endArrow=open;endSize=12;dashed=1;html=1;rounded=0;entryX=0.5;entryY=1;entryDx=0;entryDy=0;exitX=0.5;exitY=0;exitDx=0;exitDy=0;" edge="1" parent="1" source="dszYUpgC-yR1p4jUQjzj-27" target="dszYUpgC-yR1p4jUQjzj-26">
          <mxGeometry width="160" relative="1" as="geometry">
            <mxPoint x="220" y="784.66" as="sourcePoint" />
            <mxPoint x="380" y="784.66" as="targetPoint" />
          </mxGeometry>
        </mxCell>
        <mxCell id="dszYUpgC-yR1p4jUQjzj-34" value="&amp;lt;&amp;lt;deploy&amp;gt;&amp;gt;" style="text;html=1;align=center;verticalAlign=middle;resizable=0;points=[];autosize=1;strokeColor=none;fillColor=none;" vertex="1" parent="1">
          <mxGeometry x="280" y="740" width="90" height="30" as="geometry" />
        </mxCell>
        <mxCell id="dszYUpgC-yR1p4jUQjzj-35" value="" style="endArrow=none;dashed=1;html=1;rounded=0;entryX=0.001;entryY=0.515;entryDx=0;entryDy=0;exitX=1.003;exitY=0.512;exitDx=0;exitDy=0;exitPerimeter=0;entryPerimeter=0;" edge="1" parent="1" source="dszYUpgC-yR1p4jUQjzj-36" target="dszYUpgC-yR1p4jUQjzj-27">
          <mxGeometry width="50" height="50" relative="1" as="geometry">
            <mxPoint x="640" y="580" as="sourcePoint" />
            <mxPoint x="660" y="590" as="targetPoint" />
          </mxGeometry>
        </mxCell>
        <mxCell id="dszYUpgC-yR1p4jUQjzj-36" value="CSV-Datei&lt;br&gt;mit Wechselkursen" style="shape=note;whiteSpace=wrap;html=1;backgroundOutline=1;darkOpacity=0.05;size=11;fillColor=#CCCCCC;" vertex="1" parent="1">
          <mxGeometry x="80" y="770" width="110" height="50" as="geometry" />
        </mxCell>
        <mxCell id="dszYUpgC-yR1p4jUQjzj-37" value="" style="endArrow=open;endSize=12;dashed=1;html=1;rounded=0;entryX=1;entryY=0.5;entryDx=0;entryDy=0;exitX=1;exitY=0.5;exitDx=0;exitDy=0;" edge="1" parent="1" source="dszYUpgC-yR1p4jUQjzj-26" target="dszYUpgC-yR1p4jUQjzj-3">
          <mxGeometry width="160" relative="1" as="geometry">
            <mxPoint x="240" y="760" as="sourcePoint" />
            <mxPoint x="400" y="760" as="targetPoint" />
            <Array as="points">
              <mxPoint x="370" y="715" />
              <mxPoint x="370" y="245" />
            </Array>
          </mxGeometry>
        </mxCell>
        <mxCell id="dszYUpgC-yR1p4jUQjzj-38" value="&amp;lt;&amp;lt;deploy&amp;gt;&amp;gt;" style="text;html=1;align=center;verticalAlign=middle;resizable=0;points=[];autosize=1;strokeColor=none;fillColor=none;" vertex="1" parent="1">
          <mxGeometry x="360" y="398" width="90" height="30" as="geometry" />
        </mxCell>
      </root>
    </mxGraphModel>
  </diagram>
</mxfile>
